<?xml version="1.0" encoding="UTF-8"?><svg xmlns="http://www.w3.org/2000/svg" xmlns:xlink="http://www.w3.org/1999/xlink" height="523.5" preserveAspectRatio="xMidYMid meet" version="1.0" viewBox="12.3 138.5 599.0 523.5" width="599.0" zoomAndPan="magnify"><g><g id="change1_1"><path d="M113.196,551.166c-3.364,5.771-5.153,13.694-6.788,20.2c-2.972,11.717-5.94,22.916-9.612,34.116 c9.271-7.444,10.385-22.354,12.9-32.809c1.769-7.298,3.536-14.919,6.677-21.701c0.769-1.638,2.257-3.598,3.806-5.65 C117.234,547.237,114.285,549.289,113.196,551.166z M485.889,634.077c-3.852,0.238-7.505-2.541-11.403-2.67 c1.915,0.902,3.553,2.384,4.184,4.225c-3.621-0.635-8.034-1.473-12.13-2.604c1.261,1.436,2.591,2.898,3.756,4.325 c-3.051-0.645-6.493-1.482-9.476-2.53c0.838,1.204,2.053,2.061,2.241,3.441c-2.88,0.11-6.585-2.291-9.135-3.516 c1.211,1.104,2.324,2.457,3.102,3.865c-3-1.556-6.538-2.587-9.801-3.746c1.123,1.326,2.163,2.725,3.161,4.077 c-2.802-1.712-6.226-3.175-9.465-4.095c1.215,1.205,2.99,2.65,3.239,4.408c-2.779-1.233-5.383-2.642-8.237-3.765 c1.169,0.957,2.449,2.265,2.937,3.737c-1.896-0.074-3.865-1.739-5.683-2.559c-1.532-0.681-3.263-1.059-4.966-1.51 c0.682,0.811,1.271,1.62,1.693,2.457c-3.672-0.911-7.39-3.423-11.2-4.187c0.387,2.005,1.511,4.132,2.223,6.101 c-2.802-1.794-5.995-3.901-8.591-6.028c0.033,2.937-0.23,5.845,0.7,8.643c-1.486-3.313-4.979-5.365-8.431-7.262 c0.387,0.957,0.829,1.888,1.316,2.742c-2.816-1.592-5.513-4.343-8.753-5.181c1.358,1.5,2.628,3.378,3.534,5.172 c-3.083-1.39-5.88-3.635-8.89-5.19c0.58,1.86,1.39,3.911,1.556,5.779c-1.179-1.849-3.221-3.441-5.19-4.371 c-0.193,1.528,0.247,2.937,0.239,4.454c-1.726-0.874-3.392-2.236-5.251-2.898c0.479,0.947,0.465,1.905,0.589,2.898 c-1.799-0.92-3.464-2.024-5.135-3.129c-11.389,22.253-43.922,20.872-43.922,20.872c-21.902-3.938-99.549,0.663-99.549,0.663 c-19.98,5.301-32.799,1.758-38.197-0.507c-5.011,1.961-12.129,0.856-15.562-2.107c-0.41-0.358-0.773-0.791-1.082-1.278 c-6.129,2.613-15.493,1.122-20.705-2.678h-0.764c-14.417-1.307-10.528-15.425-2.494-22.806 c4.063-3.727,11.929-7.271,17.479-10.887c-1.845-6.645-0.999-13.409,1.873-19.695c-5.26-2.908-10.418-7.325-14.713-12.147 c-6.792,11.789-11.166,24.517-14.613,37.962c-2.017,7.896-5.326,17.735-12.081,23.496c-4.853,4.132-13.105,8.043-19.104,6.175 c-2.696,1.702-6.564,2.245-9.438,2.503c-4.301,0.359-7.383,0.276-9.863-0.91c-5.285,3.606-12.309-0.829-15.845-6.922 c-4.425,4.077-10.43,7.344-13.943,8.633c-9.636,3.58-18.841,3.517-28.304,1.123c-3.755,1.113-7.699,1.021-10.784-1.381 c-11.989-1.583-14.679-16.418-6.369-24.332c3.755-3.571,10.375-5.596,15.427-5.753c2.878-0.072,7.857,1.859,11.708,2.071 c1.114-7.527,3.528-15.6,5.69-20.964c1.365-3.36,3.039-6.442,4.593-9.535c-0.159-2.752-0.318-5.439-0.087-7.675 c0.655-6.607,0.301-13.455,0.655-20.348c0.679-13.335,0-26.542,0-40.034c0.032-21.546-1.452-42.354-8.766-62.361 c-7.378-20.187-10.938-40.839-15.119-61.044c-4.049-19.547-4.76-42.108,0.032-61.002c2.303-9.037,4.786-17.514,9.737-25.787 c1.088-1.823,2.618-3.935,4.275-6.222c0.441-19.492,2.084-40.724-2.768-58.609c-2.63-9.746-6.96-16.888,0.51-25.759 c2.667-3.203,5.534-6.594,8.421-9.884c0.888-6.806,2.635-13.63,3.021-19.497c0.725-11.292,0.402-22.502,2.004-33.467 c0.964-6.626,4.374-21.116,12.436-23.799c8.375-2.798,16.737,7.602,20.911,13.758c4.411,6.507,12.705,28.419,22.364,37.687 c9.081,0.313,19.228,2.853,26.415,4.652c9.668,2.425,17.93,8.554,27.099,11.605c10.307-7.961,25.98-13.197,36.913-18.158 c6.604-2.977,23.293-9.027,26.919,1.298c2.614,7.445-3.957,20.366-6.98,26.918c-4.04,8.701-8.278,16.575-13.616,24.812 c-2.604,4.013-6.286,8.476-9.249,13.06c0.819,4.79,1.27,10.316,1.44,13.836c0.373,7.519-3.446,12.691-8.117,18.208 c-5.444,6.441-10.156,11.42-13.446,17.094c3.584,5.421,6.755,11.27,12.23,15.379c8.241,6.185,16.593,9.373,25.958,12.976 c19.519,7.477,39.719,12.599,58.402,23.468c33.665,19.597,62.028,49.755,78.934,84.801c9.618,19.947,16.313,39.679,20.578,61.089 c1.929,9.735,4.74,20.586,5.314,30.184c0.677,11.219-1.711,23.063,1.836,33.997c0.093,0.284,0.167,0.552,0.264,0.838 c10.652,9.212,35.113,20.835,90.797,21.626c0,0,66.363,0,90.249-42.665c0,0,9.948-26.256-2.649-19.694 c0,0-9.295,5.908-11.95,9.193c0,0-9.954,7.879-15.26,2.623c0,0-3.98-7.878,5.306-20.348c0,0,15.259-21.657,41.146-14.442 c0,0,27.149,16.237,6.903,52.396c1.578-0.156,3.092-0.479,4.67-1.499c-0.409,1.996-2.563,2.99-3.819,4.518 c1.541,0.102,3.005-0.166,4.496-0.552c-1.957,2.144-5.085,4.123-7.253,6.12c1.951,0.129,3.972,0,5.928,0.129 c-2.057,1.739-5.218,2.126-7.216,4.123c1.358,0.469,2.955,0.469,4.464,0.718c-2.365,1.315-5.816,1.813-7.717,3.718 c1.164,0.562,2.72,0.727,4.101,0.644c-2.504,1.215-4.929,2.375-7.446,3.332c1.712,0.534,3.447,1.141,4.851,2.098 c-2.752,0.305-6.755,1.776-8.899,3.269c1.84,0.432,4.187,0.202,5.66,1.066c-2.145,1.188-6.856-0.009-8.319,2.245 c2.052,0.433,4.623,1.196,6.257,2.274c-3.731,0.423-7.527,1.196-11.255,1.711c-1.283,0.193-2.567,0.59-3.879,0.967 c1.919,0.929,3.819,1.97,6.088,1.656c-2.743,0.682-6.102,1.61-8.494,2.559c2.029,0.304,4.279,0.221,6.258,0.81 c-1.744,1.316-5.609,1.593-7.914,1.961c1.352,0.873,3.321,1.344,4.845,2.318c-2.176,0.451-4.432,0.728-6.699,1.004 c0.934,0.533,1.675,1.15,2.116,1.795c-3.047,0.109-5.927,0.671-8.785,1.379c1.768,0.498,3.995,1.143,5.477,2.237 c-3.093-0.147-9.824,0.184-12.222,1.619c1.602,0.388,3.731,0.958,4.934,1.979c-3.364,0.461-6.833,0.35-10.18,0.976 c-1.619,0.313-4.067,0.387-6.188,0.736c2.029,1.133,3.925,2.549,5.986,3.958c-5.034,1.085-13.888-0.709-17.762,3.202 c1.822,0.249,3.958,1.142,4.905,2.633c-3.156,0.47-6.957-1.593-9.802-0.193c1.113,0.764,2.319,1.573,2.845,2.815 c-2.991,0.544-6.424-1.113-9.488-1.279c1.214,0.654,2.438,1.408,2.834,2.596c-4.436,0.672-9.479-0.571-14.352-1.345 c1.237,1.197,2.199,2.477,2.406,3.646c-3.267-0.239-6.414-0.894-9.82-0.947c1.966,0.974,4.335,2.908,5.19,4.886 c-3.533,0.304-7.51-1.978-11.007-2.65c-1.845-0.358-3.874-0.47-5.816-0.663C482.668,631.426,484.246,632.824,485.889,634.077z"/></g></g></svg>