<svg width="126" height="146" viewBox="0 0 126 146" fill="none" xmlns="http://www.w3.org/2000/svg">
<path fill-rule="evenodd" clip-rule="evenodd" d="M46.8081 8.33242C38.186 12.8581 31.1319 16.6878 31.1335 16.8435C31.1373 17.2455 51.8267 27.8034 52.5611 27.7777C52.8951 27.7664 55.3183 26.6425 57.9458 25.2803L62.7236 22.8041L67.9417 25.5067L73.1595 28.2098L81.7046 24.3408C94.5804 18.5108 95.9178 17.872 95.7081 17.6573C95.43 17.3725 90.8117 14.8726 78.2819 8.22578C72.2265 5.0133 66.3492 1.86356 65.2208 1.22621C64.0927 0.58886 63.0156 0.0761548 62.8275 0.0860792C62.6393 0.0960036 55.4304 3.80689 46.8081 8.33242ZM8.99169 28.0645L0.0161928 32.736V53.2385C0.0161928 64.515 0.13405 73.7408 0.278617 73.7408C0.422683 73.7408 4.83865 71.812 10.0916 69.4545L19.6426 65.1682V43.5572L24.3098 46.1193C27.9062 48.0919 31.5049 50.0605 35.1057 52.025L41.2343 55.3686L43.9613 54.126C45.6717 53.3455 47.3785 52.5573 49.0819 51.7616C50.3982 51.144 53.6295 49.6775 56.2622 48.5022C58.895 47.3264 61.3321 46.1441 61.6776 45.8746C62.1367 45.5167 56.539 42.3997 40.9733 34.3455C29.2402 28.2743 19.2639 23.3262 18.8039 23.3499C18.3438 23.3736 13.9283 25.4949 8.99169 28.0645ZM97.3257 29.3764C91.2128 32.1571 86.2071 34.5433 86.2014 34.6794C86.1961 34.8153 89.5278 36.8114 93.6057 39.1146C97.6833 41.4182 101.02 43.4261 101.02 43.5774C101.02 43.7282 97.4113 45.4899 93.0017 47.493C88.5914 49.4955 77.4443 54.5681 68.2295 58.7654L37.354 72.8281C29.5873 76.3659 22.5865 79.5547 21.7967 79.9152C5.93275 87.1514 1.57237 89.1593 0.973572 89.504C0.371433 89.851 0.235046 91.867 0.127873 101.985L0 114.053L8.0263 118.174L16.0524 122.295L27.1819 117.234C33.3033 114.45 38.3114 112.027 38.3114 111.849C38.3114 111.671 37.1802 110.928 35.7983 110.198C34.4158 109.467 31.5618 107.851 29.4556 106.604C27.3495 105.357 25.2494 104.214 24.7884 104.062C24.3275 103.911 23.957 103.646 23.9645 103.474C23.9722 103.302 28.8731 100.956 34.8548 98.2607C46.4731 93.0265 55.3643 88.9923 74.4524 80.2943C82.988 76.4057 91.5246 72.5195 100.062 68.6356C107.566 65.223 116.29 61.2372 119.449 59.7785L125.194 57.1264L125.321 44.9209L125.45 32.7159L117.309 28.5055C112.831 26.1901 109.004 24.3013 108.804 24.3082C108.603 24.3146 103.438 26.595 97.3257 29.3764ZM123.013 73.4091C121.813 73.9995 119.443 75.105 117.747 75.8655C116.051 76.626 112.831 78.0896 110.593 79.1185L106.525 80.9885L106.432 91.7038C106.38 97.5971 106.165 102.393 105.953 102.362C105.472 102.289 97.8455 98.3486 90.1798 94.2097C84.6471 91.2228 84.2995 91.104 82.9994 91.7528C82.2478 92.1281 77.7554 94.1582 73.0164 96.265C68.2773 98.3715 64.2454 100.233 64.0558 100.401C63.8667 100.569 73.4046 105.778 85.2517 111.977L106.791 123.248L115.993 118.452C121.053 115.814 125.356 113.408 125.554 113.106C126 112.425 125.962 72.2422 125.515 72.2966C125.339 72.3179 124.212 72.8187 123.013 73.4091ZM72.0591 120.574C70.463 121.265 68.8674 121.958 67.2722 122.651C62.455 124.751 63.3991 124.821 57.6681 121.946C53.8511 120.031 52.2058 119.441 51.4917 119.727C50.956 119.942 46.3457 122.032 41.2458 124.372C36.1462 126.711 31.7969 128.625 31.5805 128.625C29.4409 128.625 32.998 130.766 46.724 137.743L62.8213 145.924L69.5942 142.555C73.3194 140.702 80.8329 136.991 86.2914 134.309C91.7494 131.626 96.1476 129.361 96.0653 129.276C95.9824 129.191 91.409 126.824 85.9017 124.017L75.8886 118.914L72.0591 120.574Z" fill="black"/>
</svg>
