<svg width="572" height="477" viewBox="0 0 572 477" fill="none" xmlns="http://www.w3.org/2000/svg">
<path fill-rule="evenodd" clip-rule="evenodd" d="M571.8 56.4091C550.79 65.977 528.169 72.4473 504.441 75.3383C528.673 60.4703 547.266 36.8948 556.026 8.81077C533.338 22.5775 508.267 32.5926 481.484 37.9616C460.139 14.5927 429.63 0 395.867 0C331.125 0 278.6 53.8622 278.6 120.287C278.6 129.717 279.607 138.872 281.621 147.682C184.122 142.658 97.6997 94.8181 39.8048 21.9579C29.7026 39.7857 23.9297 60.4703 23.9297 82.497C23.9297 124.21 44.6379 161.036 76.1192 182.615C56.9216 182.03 38.7979 176.558 22.9565 167.61V169.089C22.9565 227.391 63.399 276.022 117.099 287.036C107.265 289.858 96.8942 291.269 86.1878 291.269C78.6363 291.269 71.2526 290.546 64.1038 289.135C79.039 336.906 122.334 371.701 173.684 372.63C133.544 404.913 82.9322 424.152 27.9908 424.152C18.5263 424.152 9.16249 423.601 0 422.5C51.9208 456.573 113.608 476.5 179.826 476.5C395.632 476.5 513.603 293.231 513.603 134.26C513.603 129.028 513.502 123.797 513.301 118.669C536.224 101.701 556.126 80.5353 571.8 56.4091Z" fill="black"/>
</svg>
